<?xml version="1.0" encoding="utf-8"?>
<!-- Generator: Adobe Illustrator 16.0.0, SVG Export Plug-In . SVG Version: 6.00 Build 0)  -->
<!DOCTYPE svg PUBLIC "-//W3C//DTD SVG 1.1//EN" "http://www.w3.org/Graphics/SVG/1.1/DTD/svg11.dtd">
<svg version="1.1" id="Слой_1" xmlns:sketch="http://www.bohemiancoding.com/sketch/ns"
	 xmlns="http://www.w3.org/2000/svg" xmlns:xlink="http://www.w3.org/1999/xlink" x="0px" y="0px" width="39.541px" height="35px"
	 viewBox="0 0 39.541 35" enable-background="new 0 0 39.541 35" xml:space="preserve">
<title>Imported Layers</title>
<desc>Created with Sketch.</desc>
<g id="Page-1" sketch:type="MSPage">
	<g id="Imported-Layers" sketch:type="MSLayerGroup">
		<path id="Fill-1" sketch:type="MSShapeGroup" fill="#9a554b" d="M35.107,26.699H17.795c-0.479,0.072-0.953,0.23-1.397,0.488
			c-0.503,0.291-0.915,0.674-1.239,1.117l-3.501,6.074h27.883L35.107,26.699"/>
		<path id="Fill-2" sketch:type="MSShapeGroup" fill="#9a554b" d="M25.394,24.279c0.523,0.297,1.08,0.464,1.645,0.514H34
			L20.035,0.609L15.581,8.32l8.494,14.72C24.409,23.536,24.846,23.956,25.394,24.279"/>
		<path id="Fill-3" sketch:type="MSShapeGroup" fill="#9a554b" d="M18.349,17.927c0-0.606-0.136-1.179-0.379-1.692l-3.47-6.012
			L0.548,34.379h8.917l8.426-14.604C18.182,19.225,18.349,18.594,18.349,17.927"/>
	</g>
</g>
</svg>
